{
	"nodes":[{
		"name":"Null",
		"translation":[0.0,
		0.0,
		7.865592946828756e-16],
		"rotation":[-0.5,
		-0.5,
		0.5,
		-0.5],
		"scale":[1.0,
		1.0,
		1.0],
		"children":[1,
		2]
	},
	{
		"name":"Symmetry.1",
		"translation":[0.0,
		0.0,
		0.0],
		"rotation":[0.0,
		0.0,
		0.7071067690849304,
		0.7071067690849304],
		"scale":[1.0,
		1.0,
		1.0],
		"children":[3]
	},
	{
		"name":"Symmetry",
		"translation":[-0.6196858286857605,
		-7.105427198782324e-17,
		-1.8985276222229005],
		"rotation":[0.5,
		0.5,
		-0.5,
		-0.5],
		"scale":[1.0,
		1.0,
		1.0],
		"children":[4]
	},
	{
		"name":"Null",
		"translation":[0.0,
		-6.070990085601807,
		4.80821418762207],
		"rotation":[0.0,
		0.0,
		0.0,
		-1.0],
		"scale":[1.0,
		1.0,
		1.0],
		"children":[5,
		6,
		7,
		8,
		9,
		10,
		11,
		12,
		13,
		14]
	},
	{
		"name":"Null.1",
		"translation":[1.873055602966459e-16,
		-1.8985276222229005,
		-0.6196858286857605],
		"rotation":[-0.5,
		-0.5,
		0.5,
		-0.5],
		"scale":[1.0,
		1.0,
		1.0],
		"children":[15,
		16,
		17]
	},
	{
		"name":"tail",
		"mesh":0,
		"translation":[1.0,
		-8.778204917907715,
		-4.246070861816406],
		"rotation":[0.0,
		0.0,
		0.7071067690849304,
		-0.7071067690849304],
		"scale":[1.0,
		1.0,
		1.0]
	},
	{
		"name":"backmidleg",
		"mesh":1,
		"translation":[1.9730383157730103,
		-9.364014625549317,
		4.848948955535889],
		"rotation":[0.0,
		0.0,
		0.7071067690849304,
		-0.7071067690849304],
		"scale":[1.0,
		1.0,
		1.0]
	},
	{
		"name":"backleg",
		"mesh":2,
		"translation":[1.391560673713684,
		-7.945751667022705,
		1.1917859315872193],
		"rotation":[0.0,
		0.0,
		0.7071067690849304,
		-0.7071067690849304],
		"scale":[1.0,
		1.0,
		1.0]
	},
	{
		"name":"hip",
		"mesh":3,
		"translation":[1.0,
		-7.235066890716553,
		-2.5071802139282228],
		"rotation":[0.0,
		0.0,
		0.7071067690849304,
		-0.7071067690849304],
		"scale":[1.0,
		1.0,
		1.0]
	},
	{
		"name":"body",
		"mesh":4,
		"translation":[1.0,
		-1.4290101528167725,
		-1.6236748695373536],
		"rotation":[0.0,
		0.0,
		0.7071067690849304,
		-0.7071067690849304],
		"scale":[1.0,
		1.0,
		1.0]
	},
	{
		"name":"frontleg",
		"mesh":5,
		"translation":[2.152432918548584,
		0.5541936159133911,
		12.70588493347168],
		"rotation":[0.7071067690849304,
		0.0,
		0.0,
		-0.7071067690849304],
		"scale":[1.0,
		1.0,
		1.0]
	},
	{
		"name":"frontmidleg",
		"mesh":6,
		"translation":[1.4339194297790528,
		-0.11945188790559769,
		4.612366676330566],
		"rotation":[0.0,
		0.0,
		0.7071067690849304,
		-0.7071067690849304],
		"scale":[1.0,
		1.0,
		1.0]
	},
	{
		"name":"shoulder",
		"mesh":7,
		"translation":[1.1302539110183716,
		0.1123020350933075,
		-4.2572784423828129],
		"rotation":[0.7071067690849304,
		0.0,
		0.0,
		-0.7071067690849304],
		"scale":[1.0,
		1.0,
		1.0]
	},
	{
		"name":"neck fluff",
		"mesh":8,
		"translation":[1.055526614189148,
		4.27837610244751,
		-2.8804497718811037],
		"rotation":[0.0,
		0.0,
		0.7071067690849304,
		-0.7071067690849304],
		"scale":[1.0,
		1.0,
		1.0]
	},
	{
		"name":"head",
		"mesh":9,
		"translation":[-0.1108517050743103,
		6.690675735473633,
		-5.0386505126953129],
		"rotation":[0.7071067690849304,
		0.0,
		0.0,
		-0.7071067690849304],
		"scale":[1.0,
		1.0,
		1.0]
	},
	{
		"name":"horn left.2",
		"mesh":10,
		"translation":[3.963355779647827,
		4.0256123542785648,
		-2.8912744522094728],
		"rotation":[0.6301756501197815,
		0.4573713541030884,
		-0.04984667897224426,
		-0.625464141368866],
		"scale":[0.6000000238418579,
		0.6000000238418579,
		0.6000000238418579]
	},
	{
		"name":"horn left.1",
		"mesh":11,
		"translation":[2.0035741329193117,
		2.4030048847198488,
		-2.588496208190918],
		"rotation":[0.8304299712181091,
		0.3099003732204437,
		-0.3095972239971161,
		-0.344234436750412],
		"scale":[0.5,
		0.5,
		0.5]
	},
	{
		"name":"horn left",
		"mesh":12,
		"translation":[-0.6196858286857605,
		0.8350652456283569,
		-1.9783802032470704],
		"rotation":[0.2951863706111908,
		0.6425457000732422,
		-0.2951863706111908,
		-0.6425457000732422],
		"scale":[1.0,
		1.0,
		1.0]
	}],
	"asset":{
		"version":"2.0",
		"generator":"Maxon Cinema 4D 26.014 (#200000219)"
	},
	"accessors":[{
		"bufferView":0,
		"type":"SCALAR",
		"componentType":5123,
		"count":66,
		"byteOffset":0,
		"min":[0],
		"max":[43]
	},
	{
		"bufferView":1,
		"type":"VEC3",
		"componentType":5126,
		"count":44,
		"byteOffset":0,
		"min":[-1.0,
		-2.1061742305755617,
		-1.0],
		"max":[1.3318318128585816,
		0.10617414861917496,
		1.0]
	},
	{
		"bufferView":1,
		"type":"VEC3",
		"componentType":5126,
		"count":44,
		"byteOffset":12,
		"min":[-0.8971258401870728,
		-1.0,
		-0.9035149812698364],
		"max":[0.8493560552597046,
		1.0,
		1.0]
	},
	{
		"bufferView":1,
		"type":"VEC2",
		"componentType":5126,
		"count":44,
		"byteOffset":24,
		"min":[0.0,
		0.0],
		"max":[1.0,
		1.0]
	},
	{
		"bufferView":2,
		"type":"SCALAR",
		"componentType":5123,
		"count":72,
		"byteOffset":0,
		"min":[0],
		"max":[47]
	},
	{
		"bufferView":3,
		"type":"VEC3",
		"componentType":5126,
		"count":48,
		"byteOffset":0,
		"min":[-0.7554051876068115,
		-4.937255382537842,
		0.06037406250834465],
		"max":[1.4544440507888795,
		0.9911786913871765,
		8.882462501525879]
	},
	{
		"bufferView":3,
		"type":"VEC3",
		"componentType":5126,
		"count":48,
		"byteOffset":12,
		"min":[-0.9995357990264893,
		-0.9999774694442749,
		-0.8602626323699951],
		"max":[0.9896003603935242,
		0.9999774694442749,
		0.9997289776802063]
	},
	{
		"bufferView":3,
		"type":"VEC2",
		"componentType":5126,
		"count":48,
		"byteOffset":24,
		"min":[0.0,
		0.0],
		"max":[1.0,
		1.0]
	},
	{
		"bufferView":4,
		"type":"SCALAR",
		"componentType":5123,
		"count":72,
		"byteOffset":0,
		"min":[0],
		"max":[47]
	},
	{
		"bufferView":5,
		"type":"VEC3",
		"componentType":5126,
		"count":48,
		"byteOffset":0,
		"min":[-2.7528629302978517,
		-4.462856769561768,
		-2.0],
		"max":[2.9974617958068849,
		1.6797354221343995,
		5.303244113922119]
	},
	{
		"bufferView":5,
		"type":"VEC3",
		"componentType":5126,
		"count":48,
		"byteOffset":12,
		"min":[-0.8020466566085815,
		-0.998468816280365,
		-0.8639534711837769],
		"max":[0.9739229679107666,
		0.998468816280365,
		0.8407955169677734]
	},
	{
		"bufferView":5,
		"type":"VEC2",
		"componentType":5126,
		"count":48,
		"byteOffset":24,
		"min":[0.0,
		0.0],
		"max":[1.0,
		1.0]
	},
	{
		"bufferView":6,
		"type":"SCALAR",
		"componentType":5123,
		"count":66,
		"byteOffset":0,
		"min":[0],
		"max":[37]
	},
	{
		"bufferView":7,
		"type":"VEC3",
		"componentType":5126,
		"count":38,
		"byteOffset":0,
		"min":[-2.3279836177825929,
		-4.215331554412842,
		-1.406519889831543],
		"max":[2.9852218627929689,
		2.215331554412842,
		4.503651142120361]
	},
	{
		"bufferView":7,
		"type":"VEC3",
		"componentType":5126,
		"count":38,
		"byteOffset":12,
		"min":[-0.9973134994506836,
		-1.0,
		-0.9862932562828064],
		"max":[0.8985448479652405,
		1.0,
		0.8944022059440613]
	},
	{
		"bufferView":7,
		"type":"VEC2",
		"componentType":5126,
		"count":38,
		"byteOffset":24,
		"min":[0.0,
		0.0],
		"max":[1.0,
		1.0]
	},
	{
		"bufferView":8,
		"type":"SCALAR",
		"componentType":5123,
		"count":129,
		"byteOffset":0,
		"min":[0],
		"max":[73]
	},
	{
		"bufferView":9,
		"type":"VEC3",
		"componentType":5126,
		"count":74,
		"byteOffset":0,
		"min":[-3.0553112030029299,
		-3.499568223953247,
		-1.660544991493225],
		"max":[5.644089698791504,
		1.499568223953247,
		5.397878170013428]
	},
	{
		"bufferView":9,
		"type":"VEC3",
		"componentType":5126,
		"count":74,
		"byteOffset":12,
		"min":[-0.9751871824264526,
		-1.0,
		-0.9997518062591553],
		"max":[0.9978278279304504,
		1.0,
		0.9554805159568787]
	},
	{
		"bufferView":9,
		"type":"VEC2",
		"componentType":5126,
		"count":74,
		"byteOffset":24,
		"min":[0.0,
		0.0],
		"max":[1.0,
		1.0]
	},
	{
		"bufferView":10,
		"type":"SCALAR",
		"componentType":5123,
		"count":72,
		"byteOffset":0,
		"min":[0],
		"max":[47]
	},
	{
		"bufferView":11,
		"type":"VEC3",
		"componentType":5126,
		"count":48,
		"byteOffset":0,
		"min":[-4.475141525268555,
		-1.0,
		-1.1684850454330445],
		"max":[0.1702755242586136,
		4.970664978027344,
		0.16025997698307038]
	},
	{
		"bufferView":11,
		"type":"VEC3",
		"componentType":5126,
		"count":48,
		"byteOffset":12,
		"min":[-0.9998875260353088,
		-1.0,
		-0.999525249004364],
		"max":[0.9998875260353088,
		1.0,
		0.9997171759605408]
	},
	{
		"bufferView":11,
		"type":"VEC2",
		"componentType":5126,
		"count":48,
		"byteOffset":24,
		"min":[0.0,
		0.0],
		"max":[1.0,
		1.0]
	},
	{
		"bufferView":12,
		"type":"SCALAR",
		"componentType":5123,
		"count":72,
		"byteOffset":0,
		"min":[0],
		"max":[47]
	},
	{
		"bufferView":13,
		"type":"VEC3",
		"componentType":5126,
		"count":48,
		"byteOffset":0,
		"min":[-1.6959736347198487,
		-4.143947124481201,
		-1.7056307792663575],
		"max":[1.4818493127822877,
		1.2761083841323853,
		3.3275020122528078]
	},
	{
		"bufferView":13,
		"type":"VEC3",
		"componentType":5126,
		"count":48,
		"byteOffset":12,
		"min":[-0.9874624609947205,
		-0.9984965920448303,
		-0.9891266226768494],
		"max":[0.9867596626281738,
		0.9984965920448303,
		0.9999967813491821]
	},
	{
		"bufferView":13,
		"type":"VEC2",
		"componentType":5126,
		"count":48,
		"byteOffset":24,
		"min":[0.0,
		0.0],
		"max":[1.0,
		1.0]
	},
	{
		"bufferView":14,
		"type":"SCALAR",
		"componentType":5123,
		"count":87,
		"byteOffset":0,
		"min":[0],
		"max":[46]
	},
	{
		"bufferView":15,
		"type":"VEC3",
		"componentType":5126,
		"count":47,
		"byteOffset":0,
		"min":[-4.288570404052734,
		-8.6663818359375,
		-2.4401257038116457],
		"max":[2.0280628204345705,
		-0.22939084470272065,
		2.4523208141326906]
	},
	{
		"bufferView":15,
		"type":"VEC3",
		"componentType":5126,
		"count":47,
		"byteOffset":12,
		"min":[-1.0,
		-0.9335508942604065,
		-0.9656588435173035],
		"max":[1.0,
		0.92754065990448,
		0.9947763681411743]
	},
	{
		"bufferView":15,
		"type":"VEC2",
		"componentType":5126,
		"count":47,
		"byteOffset":24,
		"min":[0.0,
		0.0],
		"max":[1.0,
		1.0]
	},
	{
		"bufferView":16,
		"type":"SCALAR",
		"componentType":5123,
		"count":66,
		"byteOffset":0,
		"min":[0],
		"max":[41]
	},
	{
		"bufferView":17,
		"type":"VEC3",
		"componentType":5126,
		"count":42,
		"byteOffset":0,
		"min":[-1.5008125305175782,
		-3.280486822128296,
		-4.39652681350708],
		"max":[4.207386016845703,
		1.1694337129592896,
		5.967531204223633]
	},
	{
		"bufferView":17,
		"type":"VEC3",
		"componentType":5126,
		"count":42,
		"byteOffset":12,
		"min":[-0.989117443561554,
		-1.0,
		-0.6959546208381653],
		"max":[0.9764372110366821,
		1.0,
		0.5106947422027588]
	},
	{
		"bufferView":17,
		"type":"VEC2",
		"componentType":5126,
		"count":42,
		"byteOffset":24,
		"min":[0.0,
		0.0],
		"max":[1.0,
		1.0]
	},
	{
		"bufferView":18,
		"type":"SCALAR",
		"componentType":5123,
		"count":66,
		"byteOffset":0,
		"min":[0],
		"max":[38]
	},
	{
		"bufferView":19,
		"type":"VEC3",
		"componentType":5126,
		"count":39,
		"byteOffset":0,
		"min":[-1.033814549446106,
		-1.3322850465774537,
		-1.2555179595947266],
		"max":[1.2555179595947266,
		1.6684565544128419,
		2.7167675495147707]
	},
	{
		"bufferView":19,
		"type":"VEC3",
		"componentType":5126,
		"count":39,
		"byteOffset":12,
		"min":[-1.0,
		-0.9943090677261353,
		-1.0],
		"max":[1.0,
		0.9876726269721985,
		1.0]
	},
	{
		"bufferView":19,
		"type":"VEC2",
		"componentType":5126,
		"count":39,
		"byteOffset":24,
		"min":[0.0,
		0.0],
		"max":[1.0,
		1.0]
	},
	{
		"bufferView":20,
		"type":"SCALAR",
		"componentType":5123,
		"count":5628,
		"byteOffset":0,
		"min":[0],
		"max":[2505]
	},
	{
		"bufferView":21,
		"type":"VEC3",
		"componentType":5126,
		"count":2506,
		"byteOffset":0,
		"min":[-11.483308792114258,
		-3.6713051795959474,
		-16.805204391479493],
		"max":[5.721923351287842,
		8.042520523071289,
		2.2561676502227785]
	},
	{
		"bufferView":21,
		"type":"VEC3",
		"componentType":5126,
		"count":2506,
		"byteOffset":12,
		"min":[-0.9995626211166382,
		-0.9992374777793884,
		-0.9984301328659058],
		"max":[0.9991278648376465,
		0.999902069568634,
		0.9989855289459229]
	},
	{
		"bufferView":21,
		"type":"VEC2",
		"componentType":5126,
		"count":2506,
		"byteOffset":24,
		"min":[0.0,
		0.0],
		"max":[1.0,
		1.0]
	},
	{
		"bufferView":22,
		"type":"SCALAR",
		"componentType":5123,
		"count":5628,
		"byteOffset":0,
		"min":[0],
		"max":[2499]
	},
	{
		"bufferView":23,
		"type":"VEC3",
		"componentType":5126,
		"count":2500,
		"byteOffset":0,
		"min":[-7.8682403564453129,
		-0.7777495980262756,
		-8.240068435668946],
		"max":[5.721923351287842,
		11.069440841674805,
		2.2561676502227785]
	},
	{
		"bufferView":23,
		"type":"VEC3",
		"componentType":5126,
		"count":2500,
		"byteOffset":12,
		"min":[-0.9995626211166382,
		-0.9996574521064758,
		-0.9984301328659058],
		"max":[0.9990147948265076,
		0.999902069568634,
		0.9999274611473084]
	},
	{
		"bufferView":23,
		"type":"VEC2",
		"componentType":5126,
		"count":2500,
		"byteOffset":24,
		"min":[0.0,
		0.0],
		"max":[1.0,
		1.0]
	},
	{
		"bufferView":24,
		"type":"SCALAR",
		"componentType":5123,
		"count":5628,
		"byteOffset":0,
		"min":[0],
		"max":[2493]
	},
	{
		"bufferView":25,
		"type":"VEC3",
		"componentType":5126,
		"count":2494,
		"byteOffset":0,
		"min":[-9.841659545898438,
		-5.899214267730713,
		-6.1267218589782719],
		"max":[5.721923351287842,
		8.042520523071289,
		2.2561676502227785]
	},
	{
		"bufferView":25,
		"type":"VEC3",
		"componentType":5126,
		"count":2494,
		"byteOffset":12,
		"min":[-0.9995626211166382,
		-0.9992374777793884,
		-0.9984301328659058],
		"max":[0.9999841451644898,
		0.999902069568634,
		0.9989862442016602]
	},
	{
		"bufferView":25,
		"type":"VEC2",
		"componentType":5126,
		"count":2494,
		"byteOffset":24,
		"min":[0.0,
		0.0],
		"max":[1.0,
		1.0]
	}],
	"scenes":[{
		"nodes":[0]
	}],
	"meshes":[{
		"name":"tail",
		"primitives":[{
			"attributes":{
				"POSITION":1,
				"NORMAL":2,
				"TEXCOORD_0":3
			},
			"indices":0,
			"material":0
		}]
	},
	{
		"name":"backmidleg",
		"primitives":[{
			"attributes":{
				"POSITION":5,
				"NORMAL":6,
				"TEXCOORD_0":7
			},
			"indices":4,
			"material":1
		}]
	},
	{
		"name":"backleg",
		"primitives":[{
			"attributes":{
				"POSITION":9,
				"NORMAL":10,
				"TEXCOORD_0":11
			},
			"indices":8,
			"material":0
		}]
	},
	{
		"name":"hip",
		"primitives":[{
			"attributes":{
				"POSITION":13,
				"NORMAL":14,
				"TEXCOORD_0":15
			},
			"indices":12,
			"material":1
		}]
	},
	{
		"name":"body",
		"primitives":[{
			"attributes":{
				"POSITION":17,
				"NORMAL":18,
				"TEXCOORD_0":19
			},
			"indices":16,
			"material":0
		}]
	},
	{
		"name":"frontleg",
		"primitives":[{
			"attributes":{
				"POSITION":21,
				"NORMAL":22,
				"TEXCOORD_0":23
			},
			"indices":20,
			"material":1
		}]
	},
	{
		"name":"frontmidleg",
		"primitives":[{
			"attributes":{
				"POSITION":25,
				"NORMAL":26,
				"TEXCOORD_0":27
			},
			"indices":24,
			"material":0
		}]
	},
	{
		"name":"shoulder",
		"primitives":[{
			"attributes":{
				"POSITION":29,
				"NORMAL":30,
				"TEXCOORD_0":31
			},
			"indices":28,
			"material":1
		}]
	},
	{
		"name":"neck fluff",
		"primitives":[{
			"attributes":{
				"POSITION":33,
				"NORMAL":34,
				"TEXCOORD_0":35
			},
			"indices":32,
			"material":0
		}]
	},
	{
		"name":"head",
		"primitives":[{
			"attributes":{
				"POSITION":37,
				"NORMAL":38,
				"TEXCOORD_0":39
			},
			"indices":36,
			"material":1
		}]
	},
	{
		"name":"horn left.2",
		"primitives":[{
			"attributes":{
				"POSITION":41,
				"NORMAL":42,
				"TEXCOORD_0":43
			},
			"indices":40,
			"material":2
		}]
	},
	{
		"name":"horn left.1",
		"primitives":[{
			"attributes":{
				"POSITION":45,
				"NORMAL":46,
				"TEXCOORD_0":47
			},
			"indices":44,
			"material":2
		}]
	},
	{
		"name":"horn left",
		"primitives":[{
			"attributes":{
				"POSITION":49,
				"NORMAL":50,
				"TEXCOORD_0":51
			},
			"indices":48,
			"material":2
		}]
	}],
	"bufferViews":[{
		"buffer":0,
		"target":34963,
		"byteOffset":0,
		"byteLength":132
	},
	{
		"buffer":0,
		"target":34962,
		"byteOffset":132,
		"byteLength":1408,
		"byteStride":32
	},
	{
		"buffer":1,
		"target":34963,
		"byteOffset":0,
		"byteLength":144
	},
	{
		"buffer":1,
		"target":34962,
		"byteOffset":144,
		"byteLength":1536,
		"byteStride":32
	},
	{
		"buffer":2,
		"target":34963,
		"byteOffset":0,
		"byteLength":144
	},
	{
		"buffer":2,
		"target":34962,
		"byteOffset":144,
		"byteLength":1536,
		"byteStride":32
	},
	{
		"buffer":3,
		"target":34963,
		"byteOffset":0,
		"byteLength":132
	},
	{
		"buffer":3,
		"target":34962,
		"byteOffset":132,
		"byteLength":1216,
		"byteStride":32
	},
	{
		"buffer":4,
		"target":34963,
		"byteOffset":0,
		"byteLength":258
	},
	{
		"buffer":4,
		"target":34962,
		"byteOffset":260,
		"byteLength":2368,
		"byteStride":32
	},
	{
		"buffer":5,
		"target":34963,
		"byteOffset":0,
		"byteLength":144
	},
	{
		"buffer":5,
		"target":34962,
		"byteOffset":144,
		"byteLength":1536,
		"byteStride":32
	},
	{
		"buffer":6,
		"target":34963,
		"byteOffset":0,
		"byteLength":144
	},
	{
		"buffer":6,
		"target":34962,
		"byteOffset":144,
		"byteLength":1536,
		"byteStride":32
	},
	{
		"buffer":7,
		"target":34963,
		"byteOffset":0,
		"byteLength":174
	},
	{
		"buffer":7,
		"target":34962,
		"byteOffset":176,
		"byteLength":1504,
		"byteStride":32
	},
	{
		"buffer":8,
		"target":34963,
		"byteOffset":0,
		"byteLength":132
	},
	{
		"buffer":8,
		"target":34962,
		"byteOffset":132,
		"byteLength":1344,
		"byteStride":32
	},
	{
		"buffer":9,
		"target":34963,
		"byteOffset":0,
		"byteLength":132
	},
	{
		"buffer":9,
		"target":34962,
		"byteOffset":132,
		"byteLength":1248,
		"byteStride":32
	},
	{
		"buffer":10,
		"target":34963,
		"byteOffset":0,
		"byteLength":11256
	},
	{
		"buffer":10,
		"target":34962,
		"byteOffset":11256,
		"byteLength":80192,
		"byteStride":32
	},
	{
		"buffer":11,
		"target":34963,
		"byteOffset":0,
		"byteLength":11256
	},
	{
		"buffer":11,
		"target":34962,
		"byteOffset":11256,
		"byteLength":80000,
		"byteStride":32
	},
	{
		"buffer":12,
		"target":34963,
		"byteOffset":0,
		"byteLength":11256
	},
	{
		"buffer":12,
		"target":34962,
		"byteOffset":11256,
		"byteLength":79808,
		"byteStride":32
	}],
	"buffers":[{
		"uri":"data:application/octet-stream;base64,",
		"byteLength":1540
	},
	{
		"uri":"data:application/octet-stream;base64,",
		"byteLength":1680
	},
	{
		"uri":"data:application/octet-stream;base64,",
		"byteLength":1680
	},
	{
		"uri":"data:application/octet-stream;base64,",
		"byteLength":1348
	},
	{
		"uri":"data:application/octet-stream;base64,",
		"byteLength":2628
	},
	{
		"uri":"data:application/octet-stream;base64,",
		"byteLength":1680
	},
	{
		"uri":"data:application/octet-stream;base64,",
		"byteLength":1680
	},
	{
		"uri":"data:application/octet-stream;base64,",
		"byteLength":1680
	},
	{
		"uri":"data:application/octet-stream;base64,",
		"byteLength":1476
	},
	{
		"uri":"data:application/octet-stream;base64,",
		"byteLength":1380
	},
	{
		"uri":"data:application/octet-stream;base64,",
		"byteLength":91448
	},
	{
		"uri":"data:application/octet-stream;base64,",
		"byteLength":91256
	},
	{
		"uri":"data:application/octet-stream;base64,",
		"byteLength":91064
	}],
	"materials":[{
		"pbrMetallicRoughness":{
			"baseColorFactor":[0.67,
			0.67,
			0.67,
			1.0],
			"metallicFactor":0.0,
			"roughnessFactor":0.5
		},
		"emissiveFactor":[0.0,
		0.0,
		0.0],
		"alphaMode":"OPAQUE",
		"doubleSided":false,
		"name":"Mat.1"
	},
	{
		"pbrMetallicRoughness":{
			"baseColorFactor":[0.27,
			0.27,
			0.27,
			1.0],
			"metallicFactor":0.0,
			"roughnessFactor":0.5
		},
		"emissiveFactor":[0.0,
		0.0,
		0.0],
		"alphaMode":"OPAQUE",
		"doubleSided":false,
		"name":"Mat"
	},
	{
		"pbrMetallicRoughness":{
			"baseColorFactor":[0.75,
			0.75,
			0.75,
			1.0],
			"metallicFactor":0.0,
			"roughnessFactor":0.5
		},
		"emissiveFactor":[0.0,
		0.0,
		0.0],
		"alphaMode":"OPAQUE",
		"doubleSided":false,
		"name":"Mat.2"
	}]
}